<?xml version="1.0" standalone="no"?>
<!DOCTYPE svg PUBLIC "-//W3C//DTD SVG 20010904//EN"
 "http://www.w3.org/TR/2001/REC-SVG-20010904/DTD/svg10.dtd">
<svg version="1.0" xmlns="http://www.w3.org/2000/svg"
 width="428.000000pt" height="428.000000pt" viewBox="0 0 428.000000 428.000000"
 preserveAspectRatio="xMidYMid meet">
<metadata>
Created by potrace 1.11, written by Peter Selinger 2001-2013
</metadata>
<g transform="translate(0.000000,428.000000) scale(0.100000,-0.100000)"
fill="#000000" stroke="none">
<path d="M2685 4060 c-27 -11 -95 -33 -150 -49 -70 -21 -112 -40 -135 -61 -18
-16 -41 -30 -50 -30 -9 0 -20 -4 -26 -9 -9 -9 -187 -81 -201 -81 -5 0 -70 -27
-146 -60 -76 -32 -155 -62 -175 -66 -20 -4 -59 -18 -86 -31 -46 -23 -175 -71
-311 -114 -197 -63 -284 -93 -314 -106 -45 -20 -197 -61 -252 -68 -24 -3 -64
-16 -89 -28 -25 -12 -50 -20 -56 -19 -30 6 -90 -148 -86 -222 1 -11 8 -24 17
-28 8 -5 15 -17 15 -26 0 -10 4 -22 9 -27 6 -6 24 -45 41 -88 27 -67 30 -82
20 -115 -17 -63 -12 -89 24 -129 42 -48 65 -93 83 -163 7 -30 15 -62 17 -70 2
-9 13 -31 24 -50 22 -37 37 -114 34 -167 -1 -18 3 -45 9 -60 6 -16 17 -65 24
-111 9 -57 21 -93 38 -115 14 -19 26 -52 30 -83 5 -47 25 -91 90 -204 14 -25
33 -83 42 -130 9 -47 25 -106 35 -132 12 -29 17 -60 13 -81 -4 -29 1 -38 46
-84 28 -29 52 -59 52 -67 1 -9 2 -19 3 -23 1 -5 6 -32 10 -60 4 -29 12 -53 16
-53 5 0 18 -16 30 -35 12 -20 27 -41 34 -48 6 -6 20 -29 30 -49 21 -39 26 -42
156 -93 89 -35 165 -74 215 -111 37 -27 112 -60 156 -69 77 -15 172 -52 300
-115 74 -37 153 -73 175 -80 21 -7 44 -16 49 -20 6 -4 35 -15 65 -25 70 -23
186 -81 197 -98 7 -11 182 -108 308 -170 22 -11 43 -25 47 -31 8 -12 39 -18
103 -20 37 -1 40 1 37 25 -1 15 4 32 13 39 13 11 12 15 -5 37 -27 35 -25 49
10 70 17 9 30 20 30 23 0 3 16 23 35 45 19 22 35 45 35 52 0 7 9 17 21 23 11
7 18 18 15 25 -2 7 1 18 8 24 8 7 16 24 19 39 6 27 24 55 64 97 l22 23 -36 88
c-19 49 -42 107 -51 129 -8 22 -23 58 -33 80 -10 23 -21 53 -24 68 -4 15 -11
30 -16 33 -5 3 -9 14 -9 25 0 17 5 19 58 13 31 -3 73 -10 93 -15 57 -14 72 -4
65 45 -4 22 -11 43 -15 46 -11 7 -60 151 -76 225 -7 33 -16 67 -20 76 -5 12 1
18 25 22 19 4 34 15 39 30 10 24 41 45 41 27 0 -6 4 -10 10 -10 11 0 1 92 -11
100 -4 3 -11 18 -14 33 -4 15 -11 30 -16 33 -5 3 -9 16 -9 28 0 13 -9 35 -21
49 -11 15 -22 36 -24 47 -2 11 -27 82 -56 158 -29 75 -64 178 -79 227 -16 50
-37 115 -48 145 -11 30 -37 111 -57 180 -21 69 -53 170 -70 226 -31 96 -105
390 -161 634 -14 63 -32 138 -39 165 -28 105 -37 157 -32 193 2 20 -4 69 -13
107 -10 39 -21 89 -25 112 -4 24 -11 45 -15 48 -5 3 -7 12 -4 20 7 18 -54 85
-76 84 -8 0 -37 -9 -65 -19z m42 -57 c-4 -3 -2 -12 4 -20 6 -7 8 -13 4 -13 -5
0 0 -9 10 -20 10 -11 21 -17 26 -15 4 3 11 0 15 -6 4 -8 3 -9 -4 -5 -7 4 -12
1 -12 -9 0 -9 4 -14 9 -10 5 3 12 1 15 -4 3 -5 -1 -12 -10 -15 -14 -5 -14 -9
-3 -23 10 -12 10 -14 2 -9 -8 4 -13 1 -13 -9 0 -9 4 -14 9 -10 5 3 12 1 16 -5
3 -5 -1 -10 -9 -10 -18 0 -48 29 -42 39 3 4 -1 8 -9 8 -9 0 -12 -5 -7 -12 4
-6 0 -3 -9 7 -19 20 -74 44 -64 28 3 -6 12 -10 20 -10 8 0 16 -4 20 -9 3 -6
-6 -6 -25 -1 -17 5 -28 5 -26 1 3 -5 -6 -19 -19 -31 -14 -13 -25 -20 -25 -15
0 5 -5 4 -11 -2 -17 -17 -64 3 -78 33 -17 38 -14 51 17 59 46 13 52 14 59 3 4
-7 1 -8 -7 -3 -8 5 -11 4 -7 -3 4 -5 15 -9 25 -7 9 1 23 -3 31 -9 12 -9 13 -7
9 11 -4 13 -1 26 4 30 7 3 8 1 4 -5 -4 -8 3 -16 19 -22 34 -13 38 -13 29 2 -5
8 0 9 15 5 13 -3 20 -3 17 0 -3 4 0 13 7 22 10 14 10 14 -5 3 -11 -9 -18 -10
-23 -2 -4 6 -3 9 2 8 4 -2 8 2 8 7 0 6 -4 9 -8 7 -5 -1 -5 3 0 10 4 7 8 16 9
21 3 15 4 17 11 17 3 0 3 -3 0 -7z m55 -201 c8 -8 5 -9 -11 -5 -12 3 -24 9
-26 13 -8 12 23 6 37 -8z m-81 -33 c25 -87 49 -179 53 -204 3 -17 18 -70 32
-120 14 -49 33 -117 41 -150 59 -237 73 -296 73 -315 0 -12 19 -83 42 -158 23
-76 42 -151 42 -169 1 -18 7 -38 14 -45 6 -6 12 -16 12 -21 0 -12 65 -175 101
-254 16 -34 29 -72 29 -86 0 -13 12 -55 26 -93 14 -38 48 -131 75 -208 27 -76
54 -145 60 -152 6 -8 9 -14 6 -14 -4 0 12 -35 33 -78 34 -66 79 -182 80 -203
0 -12 -44 -18 -56 -8 -7 6 -29 59 -48 119 -20 59 -43 121 -51 136 -8 16 -15
36 -16 44 0 8 -3 10 -5 4 -2 -5 6 -41 19 -80 120 -353 181 -541 196 -597 13
-50 7 -51 -110 -35 l-93 13 -27 70 c-24 62 -25 71 -10 76 9 3 29 2 44 -4 33
-11 37 -9 26 18 -7 18 -8 18 -8 2 -1 -10 -5 -16 -10 -12 -5 3 -23 7 -41 9 -39
4 -43 9 -45 48 -1 18 -7 46 -14 63 -7 16 -10 37 -8 47 3 10 1 18 -4 18 -10 0
-39 94 -39 127 0 20 4 23 21 18 16 -5 20 -3 17 6 -3 8 -14 13 -26 11 -25 -4
-33 8 -38 61 -2 23 -9 44 -14 45 -6 2 -10 12 -10 22 0 24 44 32 64 11 13 -12
18 -13 28 -3 10 10 10 15 -2 22 -8 6 -21 8 -27 5 -7 -2 -13 3 -13 11 0 8 -5
12 -10 9 -6 -4 -7 -12 -4 -18 5 -9 3 -8 -6 0 -8 8 -18 9 -24 4 -7 -6 -17 4
-28 30 -15 36 -15 39 -1 37 9 -2 18 3 20 10 3 8 -1 10 -13 5 -12 -4 -15 -3
-10 5 4 7 1 12 -10 12 -13 0 -15 7 -12 34 2 19 0 32 -4 30 -4 -3 -8 2 -8 10 0
26 -1 30 -13 45 -9 12 -9 13 1 7 8 -4 12 -1 12 9 0 12 -5 15 -16 11 -13 -5
-15 -2 -11 14 3 11 2 22 -3 25 -4 2 -10 23 -14 45 -3 22 -10 40 -15 40 -5 0
-12 7 -15 16 -3 8 -2 12 4 9 17 -10 11 4 -10 25 -11 11 -20 31 -20 44 0 14 -4
27 -9 30 -5 3 -17 36 -26 73 -10 38 -24 83 -32 101 -8 18 -12 40 -9 47 2 7 -2
19 -10 25 -20 17 -19 61 1 54 10 -4 13 -2 10 8 -4 11 1 14 17 13 13 -1 22 -8
20 -14 -1 -7 2 -10 8 -6 8 5 8 11 -1 21 -6 7 -15 12 -19 9 -5 -3 -11 -1 -15 5
-4 6 -10 8 -15 5 -16 -10 -52 15 -46 31 5 14 -10 57 -41 117 -9 17 -11 36 -7
50 13 38 13 47 -2 47 -13 0 -18 12 -15 33 0 4 -3 7 -7 7 -5 0 -15 18 -22 39
-7 22 -20 43 -29 46 -13 5 -14 4 -3 -6 21 -22 14 -28 -25 -22 -46 7 -52 11
-33 23 12 7 12 12 3 21 -10 10 -15 6 -23 -16 -10 -25 -12 -26 -28 -12 -18 15
-37 19 -195 41 -31 5 -60 12 -63 17 -3 5 -20 9 -37 9 -18 1 -45 8 -62 16 -16
8 -23 12 -14 10 12 -3 15 1 12 15 -8 30 -22 32 -28 6 l-7 -24 -39 19 c-22 10
-45 16 -51 12 -7 -4 -8 -3 -4 4 5 8 -2 10 -23 6 -18 -4 -37 -2 -45 5 -8 7 -23
11 -33 10 -26 -4 -73 10 -73 22 0 6 5 7 10 4 6 -3 10 -1 10 4 0 13 -3 13 -24
5 -9 -3 -13 -10 -10 -15 9 -15 -25 -10 -51 7 -14 9 -25 23 -25 30 0 10 -9 13
-27 11 -16 -2 -34 0 -41 6 -10 8 -16 7 -22 -2 -11 -19 -30 -4 -30 25 0 24 -14
32 -24 15 -4 -5 0 -11 6 -14 8 -2 1 -10 -15 -18 -24 -11 -30 -11 -37 1 -4 7
-15 10 -24 7 -10 -4 -16 -1 -16 6 0 8 11 12 30 11 17 -1 33 2 36 7 4 7 -69 15
-98 10 -5 0 -8 4 -8 10 0 7 -7 8 -17 4 -33 -14 -98 -14 -148 0 -27 8 -66 17
-85 20 -19 3 -42 13 -51 21 -8 7 -24 14 -35 14 -16 0 -17 2 -4 10 24 15 53 12
47 -5 -4 -8 -1 -17 6 -21 7 -4 9 -4 5 1 -18 20 14 30 86 27 55 -3 74 -7 70
-15 -5 -9 -4 -9 5 -1 15 14 229 7 247 -7 6 -5 18 -7 25 -4 8 3 127 7 264 9
138 2 370 6 517 8 l266 5 16 -51 16 -51 -5 50 c-3 28 -1 45 3 40 10 -11 72
-233 72 -256 0 -8 11 -50 25 -94 14 -44 27 -87 29 -95 9 -44 63 -245 73 -270
4 -8 5 -19 4 -23 0 -4 8 -27 18 -50 11 -24 23 -56 27 -72 4 -17 20 -59 36 -95
17 -36 37 -81 45 -100 9 -19 26 -57 39 -85 12 -27 31 -78 40 -112 10 -35 21
-63 26 -63 5 0 7 3 5 8 -3 4 -18 50 -35 103 -17 53 -47 129 -66 170 -39 85
-88 211 -109 284 -63 211 -89 303 -111 385 -14 52 -39 147 -56 210 -40 147
-45 180 -29 180 27 0 -3 13 -38 17 -21 2 -44 6 -52 8 -7 3 -30 1 -50 -4 -58
-15 -234 -25 -227 -13 3 6 2 13 -4 17 -6 3 -13 -1 -16 -9 -7 -17 -44 -22 -44
-6 0 5 -7 7 -16 3 -9 -3 -20 0 -25 8 -7 11 -9 11 -9 -2 0 -14 -14 -17 -87 -19
-189 -6 -223 -5 -223 1 0 4 -10 7 -22 7 -13 1 -32 3 -43 5 -11 3 -26 -1 -34
-7 -11 -8 -13 -8 -7 2 4 6 2 12 -4 12 -6 0 -13 -7 -17 -16 -6 -15 -8 -15 -20
2 -12 16 -13 16 -13 1 0 -9 -7 -17 -16 -17 -8 0 -12 5 -9 10 9 14 -19 12 -33
-2 -10 -10 -15 -10 -21 1 -5 8 -15 11 -23 8 -13 -5 -51 8 -101 34 -11 6 -16 6
-15 -2 4 -15 -39 -31 -48 -18 -4 6 -11 5 -22 -3 -14 -12 -14 -10 -3 10 14 26
5 29 -21 5 -10 -9 -18 -12 -18 -7 0 19 18 35 38 37 24 1 29 12 10 21 -7 3 -3
3 10 0 12 -3 22 -1 22 4 0 19 -37 19 -49 1 -6 -11 -18 -19 -27 -19 -8 0 -13
-4 -10 -8 2 -4 -5 -19 -16 -32 l-20 -25 6 28 c4 16 2 27 -4 27 -14 0 -3 39 17
58 21 21 151 64 173 57 11 -4 22 0 27 9 5 9 53 26 118 41 60 14 115 31 122 37
7 6 13 8 13 5 0 -4 30 5 67 19 37 14 85 29 108 33 68 14 139 33 170 47 17 7
82 27 145 44 63 17 124 35 135 41 29 14 108 38 119 35 6 -1 13 -13 17 -27z
m-1261 -369 c9 -6 10 -10 3 -10 -6 0 -19 -3 -27 -6 -12 -5 -15 -2 -10 10 7 18
13 20 34 6z m15 -60 c-3 -5 -11 -10 -16 -10 -6 0 -7 5 -4 10 3 6 11 10 16 10
6 0 7 -4 4 -10z m-520 -20 c3 -6 -1 -7 -9 -4 -18 7 -21 14 -7 14 6 0 13 -4 16
-10z m4 -25 c23 -8 43 -15 46 -15 7 -1 21 -6 104 -35 41 -14 76 -23 79 -20 5
4 -52 31 -102 49 -10 4 -17 8 -15 11 5 5 141 -28 179 -43 14 -6 70 -20 125
-32 55 -12 127 -29 160 -36 33 -8 69 -16 80 -18 11 -3 65 -17 120 -32 55 -14
109 -26 119 -26 11 1 29 -4 40 -10 12 -7 37 -13 56 -14 57 -3 108 -14 153 -34
23 -10 58 -20 77 -21 19 -2 40 -6 45 -10 10 -7 127 -39 153 -41 6 -1 12 -5 12
-9 0 -3 9 -9 20 -12 11 -3 18 -1 14 4 -3 5 1 9 8 8 22 -1 49 -14 50 -24 0 -6
4 -9 9 -7 6 1 19 -3 30 -8 11 -6 36 -13 55 -16 20 -2 43 -9 53 -15 32 -20
-130 5 -226 36 -15 5 -23 3 -23 -4 0 -6 8 -11 18 -12 14 0 14 -2 -3 -8 -17 -7
-13 -10 25 -20 25 -7 59 -16 75 -21 17 -5 46 -13 65 -19 l35 -10 -37 4 c-24 3
-38 1 -38 -6 0 -7 -7 -8 -17 -4 -10 4 -35 11 -56 15 -54 11 -30 -14 30 -31 57
-16 43 -24 -18 -10 -30 7 -46 7 -50 -1 -4 -7 -24 -5 -60 5 -29 9 -55 15 -56
13 -5 -4 96 -45 122 -49 11 -2 31 -9 45 -15 19 -8 21 -11 7 -11 -10 -1 -15 -6
-12 -11 4 -6 1 -9 -7 -8 -7 2 -12 -3 -11 -9 2 -7 -4 -13 -13 -13 -13 0 -14 3
-5 13 6 8 7 18 3 22 -4 5 -2 5 5 1 6 -3 15 -1 19 5 5 9 0 10 -14 7 -12 -4 -22
-3 -22 1 0 8 -91 34 -97 28 -3 -4 19 -15 81 -37 23 -9 26 -13 16 -25 -13 -15
-35 -11 -25 5 8 13 -14 23 -33 14 -9 -4 -26 -7 -37 -6 -28 2 34 -26 68 -30 31
-5 48 -18 22 -18 -12 0 -15 -4 -9 -13 5 -7 1 -4 -9 6 -13 15 -20 17 -31 8 -11
-10 -26 -9 -65 3 -32 9 -50 11 -48 4 3 -13 -31 -20 -38 -7 -4 5 -14 4 -24 -2
-13 -9 -50 -1 -175 40 -86 28 -161 49 -166 46 -12 -7 -350 103 -369 121 -2 2
2 10 9 19 17 20 5 32 -15 15 -13 -11 -14 -10 -9 4 4 11 1 16 -10 16 -9 0 -19
7 -23 16 -4 11 -8 12 -13 4 -6 -9 -13 -9 -30 0 -12 6 -24 9 -27 6 -3 -3 10
-12 28 -20 l34 -14 -40 3 c-58 6 -70 9 -201 55 -176 62 -458 200 -351 172 20
-5 21 -4 8 11 -7 9 -10 17 -6 17 5 0 0 9 -9 19 -18 19 -17 19 38 7 30 -7 53
-9 50 -5 -6 11 -1 11 20 3 9 -3 13 -11 9 -17 -4 -6 -1 -7 7 -2 17 10 -30 50
-77 66 -18 6 -33 16 -33 22 0 8 4 7 12 -1 7 -7 18 -12 26 -12 7 0 45 -14 82
-30 63 -28 167 -56 115 -31 -20 9 -20 10 0 10 33 1 -1 25 -80 56 -66 26 -85
35 -73 35 3 0 24 -7 47 -15z m-82 -1 c-3 -3 -12 -4 -19 -1 -8 3 -5 6 6 6 11 1
17 -2 13 -5z m73 -24 c18 -12 2 -12 -25 0 -13 6 -15 9 -5 9 8 0 22 -4 30 -9z
m-133 -6 c-3 -3 -12 -4 -19 -1 -8 3 -5 6 6 6 11 1 17 -2 13 -5z m178 -14 c3
-6 -1 -7 -9 -4 -18 7 -21 14 -7 14 6 0 13 -4 16 -10z m-105 -20 c0 -5 -2 -10
-4 -10 -3 0 -8 5 -11 10 -3 6 -1 10 4 10 6 0 11 -4 11 -10z m1557 -336 c-3 -3
-12 -4 -19 -1 -8 3 -5 6 6 6 11 1 17 -2 13 -5z m248 -14 c3 -5 1 -10 -4 -10
-6 0 -11 5 -11 10 0 6 2 10 4 10 3 0 8 -4 11 -10z m-2 -24 c3 3 3 -3 1 -13 -3
-10 11 -66 31 -123 20 -58 38 -112 40 -120 12 -43 41 -115 48 -118 4 -2 7 -8
7 -14 0 -5 20 -65 44 -132 60 -165 90 -256 137 -421 22 -77 46 -159 54 -183 8
-23 10 -40 5 -37 -6 3 -10 1 -10 -4 0 -6 6 -11 13 -11 15 0 44 -76 34 -87 -4
-3 -7 1 -7 10 0 9 -4 18 -8 21 -4 2 -6 -11 -4 -30 3 -20 11 -38 19 -41 10 -4
11 -8 3 -13 -15 -9 -2 -40 14 -34 9 3 17 -9 24 -33 6 -21 18 -57 26 -81 9 -24
18 -62 20 -85 3 -23 19 -80 36 -127 18 -47 33 -103 33 -125 1 -22 6 -39 11
-37 9 3 34 -52 82 -178 14 -36 41 -98 60 -137 33 -67 37 -93 14 -93 -5 0 -12
10 -15 23 -4 12 -13 36 -20 52 -8 17 -21 53 -30 80 -20 64 -67 176 -72 172 -4
-4 23 -89 42 -132 7 -16 19 -49 26 -72 7 -24 16 -43 21 -43 4 0 7 -3 6 -7 -1
-5 6 -25 15 -47 19 -43 21 -56 9 -56 -10 0 -36 54 -72 150 -16 41 -34 89 -41
105 -7 17 -12 33 -11 37 1 4 -5 22 -14 40 -9 19 -13 24 -10 11 2 -13 0 -25 -5
-28 -11 -7 0 -37 19 -52 12 -10 12 -13 3 -13 -11 0 -11 -3 0 -17 8 -9 12 -17
11 -17 -11 -3 13 -78 27 -86 11 -7 12 -9 2 -10 -11 0 -11 -3 -1 -15 7 -8 9
-15 5 -15 -4 0 -3 -6 2 -12 18 -25 44 -108 41 -130 -4 -21 -6 -20 -21 12 -15
32 -16 33 -10 6 9 -44 -11 -24 -32 31 -10 26 -22 53 -28 58 -7 7 -8 6 -3 -2 4
-7 9 -34 12 -60 2 -26 11 -60 19 -77 20 -38 19 -62 -2 -85 -10 -11 -25 -28
-33 -37 -13 -17 -15 -14 -27 27 -7 24 -17 53 -23 64 -6 11 -12 30 -15 43 -6
34 -15 64 -25 87 -5 11 -28 76 -51 145 -38 114 -59 161 -59 134 0 -16 138
-434 155 -471 8 -17 15 -40 15 -51 0 -28 -25 -35 -26 -8 -1 12 -11 43 -23 68
-11 26 -21 51 -21 57 0 20 -23 60 -31 55 -5 -3 -9 -1 -9 5 0 5 4 11 9 13 5 2
0 23 -10 48 -18 42 -19 33 -2 -30 6 -22 5 -24 -10 -11 -16 12 -16 11 -2 -23 9
-21 11 -36 5 -36 -5 0 -10 5 -10 11 0 12 -28 77 -76 174 -18 39 -43 111 -53
162 -11 51 -25 102 -31 114 -19 35 -70 187 -70 208 0 11 -20 77 -44 148 -24
70 -55 175 -69 233 -14 58 -37 131 -51 162 -14 31 -26 60 -26 63 0 3 -9 25
-19 48 -11 23 -29 81 -41 127 -12 47 -25 90 -30 95 -4 6 -10 33 -14 62 -6 51
-66 259 -86 298 -5 11 -21 51 -35 90 -14 38 -30 72 -35 75 -7 4 -6 17 1 37 8
24 18 32 45 38 26 4 34 10 30 21 -7 18 33 66 48 57 6 -3 8 -2 3 2 -12 14 24
47 38 35 9 -8 11 -4 8 13 -4 18 3 30 23 46 29 23 44 16 44 -21 0 -10 5 -18 11
-18 7 0 8 7 4 18 -5 9 -10 33 -13 52 -4 30 -3 33 10 22 8 -6 17 -9 21 -6z
m-137 -54 c-9 -9 -37 8 -31 18 5 8 11 7 21 -1 8 -6 12 -14 10 -17z m-56 -32
c13 -9 13 -10 0 -9 -8 0 -24 4 -35 9 l-20 9 20 0 c11 0 27 -4 35 -9z m-120
-44 c0 -11 -19 -15 -25 -6 -3 5 1 10 9 10 9 0 16 -2 16 -4z m-938 -31 c3 3 10
-1 16 -8 9 -10 8 -14 -3 -14 -8 0 -11 5 -8 11 3 6 3 8 -1 4 -10 -9 -8 -23 4
-24 6 -1 11 -2 13 -4 9 -7 36 -6 31 1 -3 5 -10 6 -16 3 -7 -4 -8 -2 -4 5 6 9
11 9 23 -1 8 -7 32 -20 52 -30 20 -10 28 -16 19 -13 -10 2 -18 0 -18 -5 0 -5
-7 -7 -16 -3 -11 4 -15 2 -13 -6 3 -7 9 -12 14 -12 6 0 17 -7 26 -15 9 -8 18
-12 21 -9 3 3 11 -3 19 -12 13 -16 12 -17 -3 -4 -10 7 -18 10 -18 5 0 -4 -5
-3 -12 4 -7 7 -16 12 -21 12 -5 0 2 -9 16 -20 14 -11 32 -20 40 -20 9 0 17 -6
20 -12 3 -10 9 -10 24 -1 15 9 23 9 32 0 8 -8 11 -7 11 3 0 9 6 6 16 -8 8 -12
19 -20 24 -17 10 6 35 -23 26 -32 -3 -4 -12 -1 -18 5 -7 7 -17 12 -22 12 -6 0
4 -10 23 -22 22 -14 29 -23 20 -26 -35 -9 -40 -13 -34 -22 5 -8 12 -7 23 2 15
12 16 11 3 -4 -7 -10 -17 -16 -21 -13 -5 3 -12 0 -16 -6 -4 -7 -3 -9 3 -6 6 4
16 0 22 -7 10 -12 8 -14 -11 -10 -13 2 -17 2 -10 -2 18 -8 15 -27 -4 -20 -9 4
-13 2 -8 -5 4 -7 1 -10 -7 -7 -8 3 -13 10 -12 16 2 7 -4 9 -14 5 -10 -4 -14
-2 -10 4 14 22 -59 -4 -86 -31 -14 -14 -23 -26 -20 -26 3 0 0 -6 -6 -13 -6 -8
-9 -16 -6 -19 3 -3 -3 -11 -12 -19 -16 -13 -17 -12 -5 3 9 11 10 18 2 23 -7 5
-8 11 -1 19 7 8 6 17 -1 26 -8 12 -9 12 -4 -3 3 -11 2 -16 -4 -12 -6 3 -10 13
-10 22 0 11 -7 14 -22 10 -13 -3 -32 -2 -43 2 -12 5 -28 3 -42 -7 -13 -8 -30
-11 -39 -8 -11 4 -15 2 -11 -8 3 -8 0 -17 -7 -19 -10 -4 -12 1 -9 14 4 15 0
22 -16 26 -11 3 -21 9 -21 14 0 5 -5 9 -11 9 -8 0 -8 -5 1 -15 7 -8 19 -15 26
-15 8 0 14 -4 14 -10 0 -5 -4 -10 -8 -10 -12 0 -72 62 -72 75 0 3 6 3 13 -1 9
-6 9 -5 0 8 -7 8 -10 17 -7 21 3 3 -4 3 -16 0 -15 -4 -18 -9 -11 -16 13 -13
15 -37 3 -37 -5 0 -17 7 -28 16 -18 15 -18 15 5 10 18 -4 21 -2 13 6 -9 9 -9
15 0 25 6 8 7 13 2 12 -21 -4 -26 2 -14 16 7 8 17 12 24 8 6 -3 0 7 -14 23
-14 15 -18 23 -10 17 11 -9 21 -8 40 3 l25 14 -27 -6 c-18 -4 -28 -2 -28 6 0
6 5 8 12 4 8 -5 9 -2 4 11 -5 15 -4 16 9 5 21 -17 32 -5 14 16 -15 19 -21 47
-8 38 5 -3 7 -9 4 -14 -3 -4 1 -10 8 -13 14 -5 17 26 4 39 -11 11 3 24 24 24
11 0 18 4 14 9 -3 5 0 13 6 17 8 4 9 3 5 -4 -4 -7 -3 -12 3 -12 5 0 7 -15 5
-32 -3 -25 -2 -28 5 -13 5 11 7 23 4 28 -2 4 1 7 8 7 8 0 8 4 -1 15 -11 14
-10 14 14 5 39 -14 41 -13 15 10 l-24 20 27 -11 c21 -9 31 -9 43 1 12 10 13
16 3 29 -11 14 -11 14 3 4 9 -7 18 -11 21 -8z m-41 -12 c13 -16 12 -17 -3 -4
-17 13 -22 21 -14 21 2 0 10 -8 17 -17z m900 -18 c31 -15 32 -16 6 -10 -19 4
-26 2 -22 -5 10 -17 1 -11 -18 10 -20 24 -11 25 34 5z m86 -31 c-1 -2 -13 -1
-26 3 -16 4 -19 8 -10 14 12 7 45 -9 36 -17z m-754 -17 c-5 -8 -8 -8 -11 1 -2
7 -10 12 -17 12 -8 0 -16 4 -20 10 -3 5 7 5 25 -1 18 -7 27 -15 23 -22z m444
18 c19 -4 30 -12 27 -19 -3 -6 1 -4 8 5 11 14 15 14 26 3 10 -11 10 -14 0 -14
-7 -1 1 -7 18 -14 18 -8 35 -19 38 -25 4 -6 13 -8 19 -5 7 4 9 3 4 -1 -4 -5 1
-18 10 -29 15 -17 15 -19 1 -8 -11 9 -18 10 -23 2 -3 -5 -1 -10 4 -10 6 0 11
-5 11 -11 0 -6 -7 -9 -15 -5 -8 3 -15 1 -15 -4 0 -6 8 -10 18 -10 12 0 8 -6
-13 -20 -31 -21 -50 -26 -41 -12 3 5 -7 7 -22 5 -39 -5 -55 10 -54 49 1 37
-39 88 -69 88 -10 0 -21 5 -24 10 -4 6 -12 8 -18 4 -7 -3 -4 1 5 9 10 8 15 17
11 21 -8 7 41 3 94 -9z m293 -25 c0 -5 -2 -10 -4 -10 -3 0 -8 5 -11 10 -3 6
-1 10 4 10 6 0 11 -4 11 -10z m-729 -67 c13 -16 12 -17 -3 -4 -10 7 -18 15
-18 17 0 8 8 3 21 -13z m-421 -67 c0 -3 -4 -8 -10 -11 -5 -3 -10 -1 -10 4 0 6
5 11 10 11 6 0 10 -2 10 -4z m-30 -21 c0 -12 -19 -12 -23 0 -4 9 -1 12 9 8 7
-3 14 -7 14 -8z m1041 -28 c-10 -9 -11 -8 -5 6 3 10 9 15 12 12 3 -3 0 -11 -7
-18z m-91 -28 c0 -5 -4 -9 -10 -9 -5 0 -10 7 -10 16 0 8 5 12 10 9 6 -3 10
-10 10 -16z m280 -71 c0 -4 -4 -8 -10 -8 -5 0 -10 5 -10 12 0 6 -3 8 -6 5 -12
-12 18 -38 31 -27 8 7 12 6 12 -4 0 -8 -7 -13 -16 -11 -9 1 -23 -3 -31 -9 -13
-10 -13 -9 -1 7 11 14 11 17 0 17 -8 0 -14 10 -14 24 0 21 3 22 23 13 12 -6
22 -14 22 -19z m-920 8 c0 -3 -4 -8 -10 -11 -5 -3 -10 -1 -10 4 0 6 5 11 10
11 6 0 10 -2 10 -4z m314 -67 c-11 -18 -21 1 -16 28 5 27 5 27 14 4 4 -13 5
-27 2 -32z m634 -3 c8 -5 10 -12 4 -19 -5 -7 -8 -20 -6 -30 1 -11 -1 -16 -4
-12 -4 4 -8 11 -8 16 -1 5 -3 11 -4 14 -1 3 -3 8 -4 13 -1 4 -5 12 -9 19 -8
12 10 12 31 -1z m-1178 -21 c0 4 7 2 15 -5 8 -7 12 -17 9 -22 -3 -5 4 -12 15
-15 l22 -6 -21 -14 c-11 -8 -17 -19 -13 -26 4 -7 -1 -6 -11 2 -9 8 -28 15 -41
16 -20 0 -22 -2 -12 -15 11 -13 10 -13 -5 -1 -10 7 -18 10 -18 5 -1 -5 -9 2
-20 14 -18 22 -18 25 -4 40 13 13 17 13 25 1 8 -11 9 -10 7 6 -1 11 1 26 6 33
6 11 12 10 27 -4 10 -9 19 -14 19 -9z m460 -57 c0 -6 -6 -5 -15 2 -8 7 -15 14
-15 16 0 2 7 1 15 -2 8 -4 15 -11 15 -16z m168 -203 c15 -22 47 -66 72 -99 30
-39 44 -66 42 -82 -3 -18 3 -25 22 -30 13 -3 27 -12 30 -21 4 -11 0 -13 -17
-9 -17 5 -16 3 5 -7 24 -11 68 -57 68 -71 0 -3 20 -36 45 -73 25 -38 69 -115
97 -173 28 -58 54 -112 59 -120 10 -17 21 -40 44 -95 l17 -40 -23 21 c-13 12
-40 30 -59 39 -19 10 -29 20 -23 22 8 3 1 14 -17 29 -16 14 -29 28 -28 32 2
10 -13 73 -22 92 -43 84 -70 151 -75 177 -7 43 -21 80 -35 88 -5 3 -8 10 -5
15 6 9 -46 46 -59 42 -5 -2 -13 3 -17 10 -7 10 -9 9 -9 -4 0 -20 -25 -15 -60
13 -14 12 -19 17 -11 13 9 -5 12 -3 7 5 -4 6 -11 9 -16 6 -5 -3 -11 -2 -14 3
-9 15 -69 13 -86 -3 -15 -14 -16 -22 -7 -52 6 -19 21 -42 33 -50 35 -22 48
-64 31 -96 -12 -24 -16 -25 -21 -11 -4 10 -1 22 5 28 9 8 10 7 4 -4 -5 -8 -6
-13 -2 -10 6 5 9 22 4 18 -2 -2 -11 3 -20 11 -10 7 -17 11 -17 8 0 -4 -16 10
-36 29 -21 22 -33 42 -30 51 20 51 17 141 -4 128 -6 -3 -7 1 -4 9 8 20 6 20
64 -5 55 -24 76 -20 89 13 10 27 -1 54 -44 118 -17 25 -42 68 -55 95 -13 28
-30 59 -38 70 -9 11 8 -5 37 -35 29 -30 64 -73 79 -95z m577 135 c3 -5 1 -10
-4 -10 -6 0 -11 5 -11 10 0 6 2 10 4 10 3 0 8 -4 11 -10z m-1030 -65 c6 0 13
4 17 10 5 6 11 6 20 -3 9 -9 7 -18 -10 -42 -19 -25 -22 -38 -16 -77 3 -27 10
-53 16 -60 5 -7 8 -29 7 -50 -2 -21 0 -43 3 -48 10 -17 20 -135 11 -135 -4 0
-9 14 -10 31 -1 17 -7 37 -13 44 -8 10 -7 14 2 18 10 3 9 11 -5 35 -11 20 -14
33 -7 37 6 4 8 11 4 16 -3 6 -11 6 -18 2 -7 -4 -3 0 7 10 11 9 15 17 9 17 -5
0 -13 12 -16 26 -5 17 -12 24 -22 20 -8 -3 -19 3 -26 14 -7 11 -20 20 -28 20
-13 0 -13 -2 0 -11 12 -9 12 -10 -3 -5 -10 3 -23 6 -28 6 -5 0 -9 5 -9 11 0 5
4 8 9 5 5 -4 11 -2 13 4 1 5 18 10 36 12 17 1 32 6 32 11 0 5 -7 6 -16 3 -15
-6 -15 -4 -3 11 8 9 9 14 4 11 -6 -4 -16 2 -23 12 -9 15 -8 19 4 24 9 3 21 3
26 -1 7 -4 9 2 6 15 -4 15 -3 20 5 15 7 -4 17 -8 22 -8z m305 -56 c0 -3 16
-27 35 -53 20 -25 31 -46 25 -46 -6 0 -18 13 -29 30 -10 16 -21 28 -24 25 -4
-3 -5 -2 -2 1 2 4 -8 22 -23 42 -25 32 -25 34 -4 21 12 -8 22 -17 22 -20z
m-140 -74 c18 -26 42 -48 57 -51 l26 -7 -26 -14 c-15 -7 -31 -22 -37 -33 -6
-11 -15 -20 -21 -20 -6 0 -7 6 -3 13 5 8 3 8 -9 -2 -9 -7 -14 -17 -11 -22 3
-5 0 -9 -5 -9 -6 0 -9 10 -7 23 2 12 -1 33 -7 47 -5 14 -11 41 -12 61 -2 33 0
36 19 31 19 -5 19 -4 7 11 -7 9 -11 17 -8 17 3 0 20 -20 37 -45z m655 25 c-3
-5 -2 -10 2 -10 5 0 18 -7 29 -16 18 -15 18 -15 -4 -10 -13 2 -21 2 -18 -1 3
-4 -4 -12 -17 -18 -27 -14 -70 1 -46 16 10 6 11 9 2 9 -7 0 -13 5 -13 11 0 6
9 9 20 6 10 -3 24 1 31 9 13 16 23 19 14 4z m-166 -45 c16 -8 31 -25 33 -39 3
-14 1 -23 -3 -20 -5 3 -9 12 -9 19 0 9 -6 12 -17 9 -14 -5 -15 -4 -4 4 11 8 8
13 -15 26 -37 19 -23 21 15 1z m121 -29 c0 -3 -4 -8 -10 -11 -5 -3 -10 -1 -10
4 0 6 5 11 10 11 6 0 10 -2 10 -4z m-632 -171 l1 -20 -9 20 c-5 11 -8 31 -8
45 l0 25 8 -25 c4 -14 8 -34 8 -45z m623 41 c-7 -8 -3 -12 16 -14 23 -2 24 0
12 16 -11 14 -9 13 9 -2 21 -19 21 -20 5 -40 -17 -20 -17 -20 0 -7 15 12 21 9
19 -10 -1 -3 9 -5 21 -5 12 1 22 -4 22 -11 0 -6 3 -15 7 -19 4 -4 3 -14 -4
-21 -9 -11 -9 -20 1 -36 11 -20 10 -19 -9 2 -11 13 -20 18 -20 12 0 -7 12 -23
26 -36 18 -17 25 -31 21 -45 -3 -11 -1 -23 4 -26 5 -3 7 -10 3 -15 -3 -6 3
-13 15 -16 11 -3 19 -9 16 -12 -2 -4 2 -8 10 -8 11 0 12 4 4 13 -7 9 -5 15 10
23 26 15 31 14 31 -5 0 -9 5 -12 13 -8 6 4 4 -2 -6 -13 -18 -20 -18 -21 5 -37
12 -9 16 -16 9 -16 -8 0 -11 -6 -7 -16 5 -12 2 -15 -9 -10 -9 3 -13 2 -10 -4
3 -6 1 -10 -4 -10 -6 0 -10 -5 -9 -12 2 -6 -6 -14 -17 -16 -11 -2 -17 -1 -13
3 4 5 0 14 -10 22 -10 9 -11 12 -2 7 10 -5 8 1 -5 16 -12 14 -14 20 -5 15 8
-4 4 4 -9 18 -14 15 -21 27 -16 27 5 0 0 10 -11 23 -27 30 -44 67 -46 100 -1
15 -10 29 -19 32 -9 3 -30 36 -47 73 -26 54 -29 68 -17 70 8 2 12 8 9 14 -4 7
-2 8 5 4 8 -5 9 -12 2 -20z m170 -43 c13 -16 12 -17 -3 -4 -17 13 -22 21 -14
21 2 0 10 -8 17 -17z m-694 -39 c-3 -4 10 -26 30 -50 31 -38 33 -44 16 -44
-26 0 -51 28 -53 60 -3 32 -1 40 7 40 3 0 4 -3 0 -6z m-82 -84 c6 -42 10 -48
56 -74 32 -17 60 -26 75 -23 28 5 29 4 39 -43 l7 -35 -26 29 c-14 16 -26 26
-26 21 0 -4 -6 -3 -12 2 -7 6 -29 16 -49 22 -46 15 -65 36 -72 81 -3 19 -9 49
-12 65 -4 21 -3 26 4 15 5 -8 13 -35 16 -60z m-89 4 c3 -30 14 -77 24 -102 17
-46 38 -63 115 -92 22 -9 88 -38 150 -65 22 -10 45 -25 52 -34 7 -9 13 -12 13
-7 0 5 7 2 16 -5 9 -7 21 -14 28 -15 6 -1 20 -5 31 -10 11 -4 17 -4 13 1 -11
12 19 36 36 29 9 -3 23 -1 30 5 12 10 18 6 31 -23 22 -45 25 -48 120 -86 44
-18 84 -37 89 -41 15 -13 -1 -23 -21 -14 -10 5 -33 10 -52 12 -31 4 -33 3 -28
-17 3 -12 3 -19 0 -16 -4 3 -11 2 -17 -3 -19 -14 -56 -20 -63 -9 -4 7 -1 8 7
3 10 -6 11 -4 4 6 -5 8 -9 17 -9 21 0 3 -4 10 -8 15 -5 4 -8 4 -7 -2 5 -25 -2
-27 -25 -5 -14 13 -25 20 -25 17 0 -16 -2 -23 -12 -34 -12 -15 -45 0 -66 29
-7 10 -18 15 -24 12 -7 -5 -9 -1 -5 9 4 11 2 14 -8 10 -8 -3 -13 -9 -10 -13 3
-5 -4 -6 -15 -3 -19 5 -19 6 5 25 14 11 23 23 20 28 -3 5 -1 11 5 15 5 3 10
14 9 23 0 14 -2 13 -9 -3 -8 -18 -10 -18 -14 3 -3 17 -18 32 -27 26 -6 -3 -5
-12 3 -22 12 -15 11 -16 -5 -3 -15 12 -22 12 -42 1 -13 -7 -21 -18 -18 -24 3
-6 3 -8 -1 -4 -4 3 -6 9 -4 11 2 3 -8 18 -22 33 -14 15 -18 23 -10 19 11 -6
10 -3 -3 12 -9 11 -15 23 -12 26 3 4 2 5 -2 2 -3 -3 -13 1 -21 8 -13 10 -14 9
-7 -3 7 -12 5 -12 -11 1 -10 9 -31 16 -46 15 -14 -1 -24 2 -21 7 7 11 -37 -2
-55 -16 -10 -8 -9 -14 5 -29 16 -18 16 -18 0 -12 -9 3 -18 10 -18 15 -1 5 -2
15 -3 21 0 7 -10 14 -21 17 -18 3 -18 2 -5 -15 14 -18 14 -18 -3 -5 -18 14
-18 16 7 34 16 11 23 23 19 30 -4 7 -8 15 -8 20 0 4 -3 7 -7 7 -5 0 -8 -3 -9
-7 0 -5 -6 -14 -12 -22 -9 -11 -9 -13 0 -8 6 4 14 3 17 -2 3 -5 -8 -14 -24
-20 -17 -5 -30 -8 -30 -6 0 2 -3 11 -7 21 -4 12 -3 15 5 10 7 -4 12 -3 12 3 0
5 -6 12 -12 15 -7 3 0 2 16 -1 20 -4 27 -3 22 6 -4 6 -17 11 -29 11 -25 0 -52
36 -48 64 2 12 -1 16 -10 11 -8 -5 -10 -4 -5 3 4 7 -5 22 -20 36 -26 21 -27
25 -12 39 9 9 18 14 20 11 3 -2 11 3 19 13 12 14 12 16 0 8 -10 -5 -12 -4 -7
3 4 7 14 12 22 12 8 0 14 5 14 10 0 6 6 10 14 10 10 0 17 -17 22 -56z m549
-74 c0 -3 4 -11 8 -17 5 -8 4 -13 -3 -13 -6 0 -13 7 -17 15 -5 14 -8 14 -24
-1 -11 -9 -19 -14 -19 -9 0 4 -6 2 -14 -4 -12 -10 -13 -8 -9 9 4 15 9 18 18
10 17 -14 42 15 28 33 -6 6 -13 21 -17 32 -4 12 5 6 21 -15 16 -19 28 -37 28
-40z m1045 60 c0 -5 -2 -10 -4 -10 -3 0 -8 5 -11 10 -3 6 -1 10 4 10 6 0 11
-4 11 -10z m-735 -80 c3 -5 -1 -10 -10 -10 -9 0 -13 5 -10 10 3 6 8 10 10 10
2 0 7 -4 10 -10z m-500 -32 c5 4 5 1 1 -6 -6 -10 -11 -10 -22 -1 -8 6 -14 14
-14 16 0 3 6 0 13 -6 8 -6 18 -7 22 -3z m220 1 c11 -17 -1 -21 -15 -4 -8 9 -8
15 -2 15 6 0 14 -5 17 -11z m365 -99 c12 -7 10 -9 -8 -7 -12 0 -22 5 -22 9 0
11 12 10 30 -2z m-763 -27 c-4 -3 0 -15 10 -25 9 -10 13 -18 8 -18 -4 0 -1 -8
6 -17 13 -16 12 -17 -3 -4 -17 12 -23 9 -19 -12 1 -5 -3 -5 -9 -2 -6 4 -9 10
-6 13 3 3 -2 15 -11 26 -18 21 -18 21 4 3 12 -10 24 -14 27 -9 3 5 -1 15 -9
22 -14 11 -12 30 2 30 4 0 3 -3 0 -7z m-47 -32 c0 -11 5 -23 10 -26 6 -4 8
-10 5 -14 -2 -5 4 -16 15 -26 11 -10 17 -21 15 -25 -7 -11 16 -27 50 -36 27
-7 29 -6 16 9 -7 10 -10 17 -6 17 5 0 0 10 -11 23 -19 22 -19 22 2 4 11 -9 23
-14 26 -11 3 3 9 0 14 -7 4 -7 3 -10 -4 -5 -6 3 -13 2 -17 -4 -3 -5 5 -14 19
-20 14 -5 26 -12 26 -14 0 -3 -7 -2 -17 1 -11 4 -14 3 -9 -5 4 -7 5 -12 3 -12
-15 0 -75 25 -89 38 -10 8 -18 12 -18 8 0 -4 -9 -2 -20 4 -16 9 -19 8 -13 -6
4 -12 3 -15 -5 -10 -7 4 -12 14 -12 22 0 8 -5 14 -11 14 -5 0 -7 -6 -3 -12 4
-8 3 -10 -2 -5 -5 5 -10 17 -10 28 -3 35 -4 39 -15 39 -8 0 -8 -4 0 -14 9 -10
7 -16 -6 -27 -15 -11 -16 -11 -6 1 9 10 10 17 2 27 -7 7 -8 13 -4 13 4 0 1 8
-6 17 -12 15 -12 16 1 8 21 -13 39 -15 46 -4 3 5 10 6 16 3 7 -5 9 -1 5 9 -3
10 -2 17 3 17 6 0 10 -9 10 -19z m832 -6 c3 3 13 -5 24 -17 l19 -23 -25 20
c-15 12 -20 14 -12 4 6 -9 9 -18 6 -22 -8 -8 18 -3 32 6 7 4 17 0 24 -8 7 -8
9 -15 5 -15 -5 0 0 -9 10 -20 10 -11 21 -17 26 -14 4 2 6 -5 4 -16 -2 -12 1
-20 9 -20 8 0 16 -9 19 -20 4 -16 -1 -21 -21 -26 -15 -3 -32 -7 -39 -9 -6 -2
-17 2 -23 10 -6 7 -20 11 -31 8 -16 -5 -17 -8 -7 -22 12 -14 11 -14 -4 -2 -10
7 -16 17 -13 21 3 5 1 11 -5 15 -5 3 -10 17 -10 29 0 13 -7 29 -15 36 -8 7
-13 16 -10 20 3 5 0 10 -5 12 -6 2 -12 10 -13 18 -2 8 -7 21 -11 29 -7 11 -4
13 12 9 12 -4 22 -1 22 4 0 7 5 6 13 -1 8 -6 16 -9 19 -6z m-306 -20 c25 -13
30 -13 44 0 15 13 19 13 33 -3 21 -23 3 -49 -20 -31 -7 7 -13 8 -13 4 0 -4 -7
-2 -15 5 -8 7 -15 10 -15 6 0 -4 -13 0 -30 9 -16 9 -30 18 -30 20 0 9 17 5 46
-10z m-415 -22 c13 -16 12 -17 -3 -4 -17 13 -22 21 -14 21 2 0 10 -8 17 -17z
m128 -59 c-9 -11 -15 -12 -25 -3 -11 9 -12 15 -3 25 9 11 15 12 25 3 11 -9 12
-15 3 -25z m-244 -33 c-3 -2 -11 1 -18 7 -8 7 -18 8 -22 4 -5 -4 -5 -1 -1 5 5
10 11 10 26 1 11 -7 17 -14 15 -17z m205 19 c0 -5 -5 -10 -11 -10 -5 0 -7 5
-4 10 3 6 8 10 11 10 2 0 4 -4 4 -10z m-155 -18 c-3 -3 -11 0 -18 7 -9 10 -8
11 6 5 10 -3 15 -9 12 -12z m378 -57 c4 3 3 0 -3 -7 -6 -8 -5 -17 3 -27 9 -11
9 -13 0 -8 -6 4 -14 3 -18 -2 -3 -5 -14 -8 -24 -6 -27 5 -34 -30 -10 -51 22
-19 21 -34 -4 -52 -9 -7 -15 -19 -11 -25 3 -7 -4 -1 -16 12 -22 26 -99 65
-108 56 -3 -3 -1 -5 4 -5 6 0 18 -6 27 -12 15 -11 13 -13 -18 -14 -20 0 -31 3
-24 6 7 5 5 9 -6 14 -9 3 -13 10 -10 16 4 6 -1 7 -11 3 -12 -4 -15 -2 -12 8 3
8 -2 22 -10 32 -15 17 -14 17 12 7 26 -10 28 -9 16 5 -11 14 -11 16 1 13 8 -2
13 3 11 10 -1 8 2 11 8 7 6 -3 8 -10 5 -15 -3 -5 -1 -12 5 -15 6 -4 9 -1 8 7
-2 8 4 12 16 10 13 -3 17 1 13 11 -5 13 -2 13 24 0 17 -8 33 -12 36 -9 3 3 -2
8 -11 12 -9 3 -16 10 -16 15 0 6 9 5 21 -1 16 -9 25 -8 40 6 10 9 16 22 12 28
-3 6 5 1 19 -12 13 -12 28 -20 31 -17z m273 -21 c1 -9 0 -13 -4 -10 -3 4 -7
14 -8 22 -1 9 0 13 4 10 3 -4 7 -14 8 -22z m-185 -7 c-6 -8 -10 -16 -8 -18 1
-2 0 -3 -2 -1 -12 7 -7 32 6 32 12 0 13 -3 4 -13z m250 -4 c13 -16 12 -17 -3
-4 -17 13 -22 21 -14 21 2 0 10 -8 17 -17z m-633 -41 c-13 -6 -8 -11 23 -26
42 -21 53 -38 17 -28 -28 7 -69 42 -62 54 3 4 13 8 22 7 16 0 16 -1 0 -7z
m743 -19 c12 -16 12 -17 -2 -6 -21 17 -33 5 -16 -16 11 -14 10 -14 -5 -2 -12
9 -18 10 -18 2 0 -11 11 -14 40 -12 23 2 47 -17 35 -27 -16 -16 -59 -26 -50
-13 4 8 -1 10 -17 6 -17 -4 -29 -1 -39 11 -13 16 -12 16 9 5 22 -12 23 -11 17
9 -4 14 -1 28 11 41 21 23 18 23 35 2z m-830 -20 c13 -16 12 -17 -3 -4 -17 13
-22 21 -14 21 2 0 10 -8 17 -17z m87 -27 c-14 -15 -42 -10 -59 11 -10 11 -9
14 2 11 8 -2 13 2 12 9 -2 7 7 6 27 -4 23 -11 27 -17 18 -27z m42 -6 c0 -5 -2
-10 -4 -10 -3 0 -8 5 -11 10 -3 6 -1 10 4 10 6 0 11 -4 11 -10z m747 -27 c-4
-3 -1 -13 7 -22 8 -9 16 -20 18 -26 2 -5 9 -9 16 -8 7 0 11 -2 8 -5 -3 -3 1
-14 11 -24 9 -10 12 -18 8 -18 -4 0 0 -10 11 -22 l19 -23 -22 19 c-13 11 -23
16 -23 11 0 -4 -7 -2 -15 5 -20 17 -51 -6 -35 -25 8 -10 6 -14 -7 -17 -12 -3
-3 -11 32 -28 l50 -23 -28 -9 c-15 -6 -24 -14 -20 -20 4 -7 -2 -9 -15 -6 -12
4 -25 2 -28 -3 -3 -5 -9 -7 -14 -4 -5 3 -11 1 -14 -4 -7 -10 13 -9 31 2 6 4
15 3 18 -3 4 -6 3 -10 -2 -9 -4 1 -10 0 -13 -1 -19 -7 -41 -7 -46 1 -3 5 -10
7 -15 3 -6 -3 -5 -12 3 -22 12 -15 11 -15 -4 -4 -9 7 -15 22 -13 32 2 11 -1
23 -7 26 -7 4 -8 2 -4 -4 4 -7 3 -12 -3 -12 -5 0 -12 8 -16 19 -3 10 -15 23
-28 30 -12 6 -14 9 -5 7 12 -4 15 -1 11 10 -3 7 0 14 7 14 6 0 8 5 5 10 -3 6
-2 10 3 10 15 0 21 37 8 50 -8 8 -7 9 7 4 18 -7 50 13 42 26 -3 4 3 14 13 21
9 7 14 9 10 5 -4 -5 -2 -16 5 -24 10 -13 9 -14 -2 -7 -10 6 -12 4 -6 -5 6 -9
4 -11 -5 -5 -9 6 -11 4 -5 -5 5 -8 4 -11 -2 -7 -6 4 -18 -2 -28 -13 -10 -11
-13 -20 -8 -20 6 0 14 7 17 16 3 8 10 13 15 10 4 -3 16 3 26 14 10 11 14 20
10 20 -4 0 0 10 11 22 19 22 19 23 -1 8 -14 -10 -16 -10 -8 -1 6 7 9 20 6 27
-3 8 1 14 8 14 7 0 9 -3 6 -7z m-207 -114 c0 -12 -7 -19 -20 -19 -23 0 -26 14
-7 34 15 17 27 11 27 -15z m311 4 c13 -16 12 -17 -3 -4 -10 7 -18 15 -18 17 0
8 8 3 21 -13z m37 -62 c-2 -21 4 -30 17 -25 8 4 15 1 15 -7 0 -7 -3 -9 -7 -6
-10 10 -34 -14 -26 -27 3 -6 2 -7 -3 -3 -5 5 -9 24 -9 42 -1 18 -7 41 -15 51
-14 18 -14 18 7 0 12 -10 22 -21 21 -25z m599 -23 c-3 -8 -6 -5 -6 6 -1 11 2
17 5 13 3 -3 4 -12 1 -19z m-626 -11 c-6 -8 -7 -18 -3 -23 4 -4 -1 -2 -10 5
-19 14 -25 26 -8 16 6 -3 10 -1 10 4 0 6 5 11 11 11 8 0 9 -4 0 -13z m10 -54
c13 -16 12 -17 -3 -4 -17 13 -22 21 -14 21 2 0 10 -8 17 -17z m-20 -20 c13
-16 12 -17 -3 -4 -10 7 -18 15 -18 17 0 8 8 3 21 -13z m707 -78 c-3 -3 -9 2
-12 12 -6 14 -5 15 5 6 7 -7 10 -15 7 -18z m-361 -86 c1 -17 8 -38 14 -45 10
-12 8 -13 -7 -9 -10 4 -7 -1 9 -10 15 -8 27 -22 27 -30 0 -7 3 -21 7 -31 5
-13 3 -15 -8 -9 -12 7 -12 6 -1 -7 10 -12 9 -18 -3 -28 -8 -7 -12 -17 -8 -24
4 -7 1 -6 -9 1 -19 16 -32 5 -16 -14 6 -8 7 -13 2 -12 -15 4 -44 -13 -39 -22
10 -16 -87 20 -109 40 -13 12 -25 19 -27 16 -3 -3 -5 11 -5 30 1 25 7 37 23
46 13 7 23 16 23 21 0 5 4 7 9 4 7 -5 27 26 29 47 2 11 23 29 57 49 17 9 30
17 30 17 0 1 1 -13 2 -30z m113 -30 c0 -6 -4 -7 -10 -4 -5 3 -10 11 -10 16 0
6 5 7 10 4 6 -3 10 -11 10 -16z m50 -119 c6 -12 10 -33 8 -48 l-3 -27 -17 34
c-10 19 -18 40 -18 48 0 20 18 16 30 -7z"/>
<path d="M2606 3862 c-3 -5 1 -9 9 -9 8 0 12 4 9 9 -3 4 -7 8 -9 8 -2 0 -6 -4
-9 -8z"/>
<path d="M2523 3645 c0 -8 4 -12 9 -9 4 3 8 9 8 15 0 5 -4 9 -8 9 -5 0 -9 -7
-9 -15z"/>
<path d="M2287 3569 c7 -7 15 -10 18 -7 3 3 -2 9 -12 12 -14 6 -15 5 -6 -5z"/>
<path d="M2226 3561 c-4 -5 3 -7 14 -4 23 6 26 13 6 13 -8 0 -17 -4 -20 -9z"/>
<path d="M2580 3559 c0 -5 5 -7 10 -4 6 3 10 8 10 11 0 2 -4 4 -10 4 -5 0 -10
-5 -10 -11z"/>
<path d="M2155 3550 c3 -5 10 -10 16 -10 5 0 9 5 9 10 0 6 -7 10 -16 10 -8 0
-12 -4 -9 -10z"/>
<path d="M2406 3532 c-11 -14 -14 -22 -6 -27 6 -3 10 -3 9 2 -3 19 2 27 9 15
6 -9 16 -10 32 -4 14 5 19 11 12 16 -6 3 -14 1 -18 -6 -5 -8 -9 -7 -14 6 -5
16 -7 16 -24 -2z"/>
<path d="M2480 3540 c0 -5 5 -10 11 -10 5 0 7 5 4 10 -3 6 -8 10 -11 10 -2 0
-4 -4 -4 -10z"/>
<path d="M2520 3539 c0 -5 5 -7 10 -4 6 3 10 8 10 11 0 2 -4 4 -10 4 -5 0 -10
-5 -10 -11z"/>
<path d="M2051 3524 c0 -11 3 -14 6 -6 3 7 2 16 -1 19 -3 4 -6 -2 -5 -13z"/>
<path d="M2369 3538 c-6 -21 -5 -38 1 -38 5 0 8 9 7 20 -1 17 -5 26 -8 18z"/>
<path d="M2648 3495 c-3 -14 -1 -25 3 -25 5 0 9 11 9 25 0 14 -2 25 -4 25 -2
0 -6 -11 -8 -25z"/>
<path d="M2241 3496 c-9 -11 -7 -15 9 -19 16 -4 19 -2 11 7 -6 7 -8 16 -4 19
3 4 4 7 1 7 -3 0 -11 -6 -17 -14z"/>
<path d="M1888 3483 c-6 -7 -8 -16 -4 -20 3 -3 6 -1 6 5 0 6 8 9 18 7 10 -2
19 2 19 9 0 17 -24 16 -39 -1z"/>
<path d="M1850 3480 c0 -5 5 -10 11 -10 5 0 7 5 4 10 -3 6 -8 10 -11 10 -2 0
-4 -4 -4 -10z"/>
<path d="M1729 3444 c-7 -9 -22 -14 -36 -11 -12 2 -20 1 -18 -4 5 -7 -52 -25
-68 -21 -5 2 -6 -2 -3 -7 6 -9 18 -9 46 2 55 20 80 25 86 16 4 -6 14 -3 26 8
11 10 22 17 24 16 2 -2 6 -2 9 -2 3 1 9 2 14 3 26 3 18 14 -9 12 -17 -1 -36
-9 -41 -17 -8 -13 -13 -6 -10 14 2 11 -5 8 -20 -9z"/>
<path d="M2480 3440 c0 -5 5 -10 10 -10 6 0 10 5 10 10 0 6 -4 10 -10 10 -5 0
-10 -4 -10 -10z"/>
<path d="M2515 3440 c3 -5 8 -10 11 -10 2 0 4 5 4 10 0 6 -5 10 -11 10 -5 0
-7 -4 -4 -10z"/>
<path d="M2380 3428 c0 -9 -6 -19 -12 -21 -10 -4 -10 -6 0 -6 14 -1 28 26 18
36 -3 4 -6 -1 -6 -9z"/>
<path d="M2434 3428 c-3 -5 -9 -6 -14 -3 -5 3 -12 0 -16 -6 -5 -9 1 -10 22 -5
34 9 52 23 29 23 -9 0 -18 -4 -21 -9z"/>
<path d="M1970 3415 c-10 -12 -10 -15 3 -15 19 0 31 16 18 24 -5 3 -14 -1 -21
-9z"/>
<path d="M2215 3390 c3 -5 8 -10 11 -10 2 0 4 5 4 10 0 6 -5 10 -11 10 -5 0
-7 -4 -4 -10z"/>
<path d="M2573 3393 c4 -3 1 -13 -6 -22 -11 -14 -10 -14 5 -2 16 12 16 31 1
31 -4 0 -3 -3 0 -7z"/>
<path d="M2665 3390 c-18 -8 -17 -9 8 -9 15 -1 27 4 27 9 0 12 -8 12 -35 0z"/>
<path d="M1700 3366 c0 -2 7 -7 16 -10 8 -3 12 -2 9 4 -6 10 -25 14 -25 6z"/>
<path d="M2075 3350 c3 -5 8 -10 11 -10 2 0 4 5 4 10 0 6 -5 10 -11 10 -5 0
-7 -4 -4 -10z"/>
<path d="M1724 3214 c5 -13 4 -14 -7 -6 -8 7 -17 9 -20 5 -4 -3 3 -11 16 -18
17 -8 28 -8 46 2 14 6 28 10 33 7 4 -3 8 0 8 5 0 12 -27 10 -47 -2 -12 -8 -17
-2 -14 16 0 4 -4 7 -10 7 -6 0 -8 -7 -5 -16z"/>
<path d="M2216 3214 c-4 -9 -4 -19 -1 -22 2 -3 7 3 11 12 4 9 4 19 1 22 -2 3
-7 -3 -11 -12z"/>
<path d="M1847 3213 c-14 -14 -6 -20 19 -15 19 3 22 7 12 13 -16 11 -23 11
-31 2z"/>
<path d="M1903 3203 c-8 -19 3 -27 24 -18 10 5 21 7 26 7 4 -1 7 2 7 7 0 16
-51 20 -57 4z"/>
<path d="M1990 3209 c0 -5 5 -7 10 -4 6 3 10 8 10 11 0 2 -4 4 -10 4 -5 0 -10
-5 -10 -11z"/>
<path d="M2066 3205 c4 -8 8 -15 10 -15 2 0 4 7 4 15 0 8 -4 15 -10 15 -5 0
-7 -7 -4 -15z"/>
<path d="M2187 3213 c-10 -9 -9 -23 1 -23 5 0 9 7 9 15 0 17 -1 18 -10 8z"/>
<path d="M2470 3206 c0 -8 4 -17 9 -20 5 -4 7 3 4 14 -6 23 -13 26 -13 6z"/>
<path d="M2095 3200 c4 -6 11 -8 16 -5 14 9 11 15 -7 15 -8 0 -12 -5 -9 -10z"/>
<path d="M2275 3190 c4 -6 11 -8 16 -5 14 9 11 15 -7 15 -8 0 -12 -5 -9 -10z"/>
<path d="M2316 3186 c3 -9 11 -16 16 -16 13 0 5 23 -10 28 -7 2 -10 -2 -6 -12z"/>
<path d="M2350 3188 c0 -6 3 -9 6 -5 3 3 17 2 30 -3 17 -7 24 -6 24 3 0 7 -13
14 -30 15 -18 1 -30 -3 -30 -10z"/>
<path d="M2545 3190 c-3 -5 1 -10 10 -10 9 0 13 5 10 10 -3 6 -8 10 -10 10 -2
0 -7 -4 -10 -10z"/>
<path d="M2585 3190 c-3 -5 1 -10 10 -10 9 0 13 5 10 10 -3 6 -8 10 -10 10 -2
0 -7 -4 -10 -10z"/>
<path d="M1841 3144 c0 -11 3 -14 6 -6 3 7 2 16 -1 19 -3 4 -6 -2 -5 -13z"/>
<path d="M1980 3145 c-7 -8 -11 -15 -9 -16 28 -7 88 -5 83 3 -3 5 -9 7 -12 4
-3 -4 -15 1 -28 9 -19 12 -24 12 -34 0z"/>
<path d="M2200 3148 c0 -4 0 -11 0 -15 0 -5 8 -8 18 -8 9 -1 22 -4 29 -8 12
-8 48 21 38 31 -3 4 -10 0 -15 -8 -8 -13 -14 -8 -12 11 1 3 -12 6 -29 6 -16 0
-29 -4 -29 -9z m25 -8 c3 -5 -1 -10 -10 -10 -9 0 -13 5 -10 10 3 6 8 10 10 10
2 0 7 -4 10 -10z"/>
<path d="M2080 3130 c0 -5 5 -10 11 -10 5 0 7 5 4 10 -3 6 -8 10 -11 10 -2 0
-4 -4 -4 -10z"/>
<path d="M2395 3131 c-3 -5 -2 -12 3 -15 5 -3 9 1 9 9 0 17 -3 19 -12 6z"/>
<path d="M2356 3118 c3 -5 10 -6 15 -3 13 9 11 12 -6 12 -8 0 -12 -4 -9 -9z"/>
<path d="M2440 3120 c0 -12 32 -17 60 -9 14 4 18 8 10 9 -8 1 -27 3 -42 5 -16
2 -28 0 -28 -5z"/>
<path d="M2550 3119 c0 -5 -6 -7 -12 -3 -7 4 -10 3 -5 -1 9 -10 57 -13 57 -4
0 4 -7 10 -16 13 -21 8 -24 8 -24 -5z"/>
<path d="M2227 3059 c-27 -16 -10 -29 24 -19 18 5 34 12 38 16 3 4 -3 4 -13 0
-11 -4 -22 -2 -25 3 -4 6 -13 6 -24 0z"/>
<path d="M2667 3055 c-8 -20 -4 -29 11 -24 5 2 6 13 2 23 -6 19 -7 19 -13 1z"/>
<path d="M2500 3046 c0 -9 5 -16 10 -16 6 0 10 4 10 9 0 6 -4 13 -10 16 -5 3
-10 -1 -10 -9z"/>
<path d="M2345 3040 c3 -5 12 -7 20 -3 21 7 19 13 -6 13 -11 0 -18 -4 -14 -10z"/>
<path d="M2390 3040 c0 -5 7 -10 15 -10 8 0 15 5 15 10 0 6 -7 10 -15 10 -8 0
-15 -4 -15 -10z"/>
<path d="M2455 3040 c-3 -5 1 -10 9 -10 8 0 18 5 21 10 3 6 -1 10 -9 10 -8 0
-18 -4 -21 -10z"/>
<path d="M2536 3035 c4 -8 8 -15 10 -15 2 0 4 7 4 15 0 8 -4 15 -10 15 -5 0
-7 -7 -4 -15z"/>
<path d="M2625 2960 c-3 -5 -1 -10 4 -10 6 0 11 5 11 10 0 6 -2 10 -4 10 -3 0
-8 -4 -11 -10z"/>
<path d="M2696 2962 c-3 -5 1 -9 9 -9 8 0 12 4 9 9 -3 4 -7 8 -9 8 -2 0 -6 -4
-9 -8z"/>
<path d="M2808 2663 c-8 -29 3 -36 34 -23 22 10 22 10 1 6 -16 -3 -23 2 -25
18 -3 21 -3 21 -10 -1z"/>
<path d="M2930 2240 c0 -5 7 -10 15 -10 8 0 15 5 15 10 0 6 -7 10 -15 10 -8 0
-15 -4 -15 -10z"/>
<path d="M3191 1950 c0 -8 6 -28 14 -45 l14 -30 -6 30 c-7 38 -22 68 -22 45z"/>
<path d="M3221 1865 c1 -19 18 -51 18 -35 0 8 -4 22 -9 30 -5 8 -9 11 -9 5z"/>
<path d="M3085 1830 c3 -5 14 -10 23 -10 15 0 15 2 2 10 -20 13 -33 13 -25 0z"/>
<path d="M3175 1580 c3 -5 11 -10 16 -10 6 0 7 5 4 10 -3 6 -11 10 -16 10 -6
0 -7 -4 -4 -10z"/>
<path d="M3208 1348 c-4 -10 -1 -19 8 -22 23 -9 34 -7 34 5 0 6 -6 9 -14 6 -9
-4 -16 1 -18 11 -3 16 -4 16 -10 0z"/>
<path d="M3310 1246 c0 -8 5 -18 10 -21 6 -3 10 3 10 14 0 12 -4 21 -10 21 -5
0 -10 -6 -10 -14z"/>
<path d="M944 3196 c1 -8 5 -18 8 -22 4 -3 5 1 4 10 -1 8 -5 18 -8 22 -4 3 -5
-1 -4 -10z"/>
<path d="M814 3183 c9 -9 96 -43 96 -37 0 6 -78 44 -91 44 -7 0 -9 -3 -5 -7z"/>
<path d="M1390 3180 c0 -6 3 -10 8 -11 32 -3 58 -12 71 -23 9 -8 34 -16 56
-18 22 -3 75 -15 119 -27 43 -12 81 -20 83 -17 4 4 -87 33 -128 41 -8 2 -32
10 -52 18 -20 9 -51 18 -70 21 -19 3 -46 10 -61 15 -17 7 -26 7 -26 1z"/>
<path d="M825 3150 c3 -5 10 -10 16 -10 5 0 9 5 9 10 0 6 -7 10 -16 10 -8 0
-12 -4 -9 -10z"/>
<path d="M1490 3106 c42 -17 58 -20 45 -7 -6 5 -26 12 -45 15 l-35 6 35 -14z"/>
<path d="M1380 3061 c0 -10 150 -71 172 -71 17 1 -109 65 -144 74 -16 3 -28 2
-28 -3z"/>
<path d="M1588 3013 c7 -3 16 -2 19 1 4 3 -2 6 -13 5 -11 0 -14 -3 -6 -6z"/>
<path d="M1456 3001 c-7 -11 22 -36 31 -27 3 3 1 6 -6 6 -7 0 -10 4 -6 9 3 5
1 12 -4 15 -5 4 -12 2 -15 -3z"/>
<path d="M1575 2980 c3 -5 11 -10 16 -10 6 0 7 5 4 10 -3 6 -11 10 -16 10 -6
0 -7 -4 -4 -10z"/>
<path d="M2189 2940 c24 -11 46 -18 49 -16 2 3 27 -4 56 -14 59 -23 56 -23 56
-11 0 5 -10 11 -22 14 -13 2 -50 12 -83 21 -98 26 -102 27 -56 6z"/>
<path d="M1470 2905 c-7 -9 -8 -15 -2 -15 5 0 12 7 16 15 3 8 4 15 2 15 -2 0
-9 -7 -16 -15z"/>
<path d="M2215 2890 c11 -5 27 -9 35 -9 9 0 8 4 -5 9 -11 5 -27 9 -35 9 -9 0
-8 -4 5 -9z"/>
<path d="M2295 2869 c-6 -8 8 -13 27 -10 4 0 20 -4 35 -10 15 -6 24 -6 18 -1
-18 16 -74 31 -80 21z"/>
<path d="M2208 2838 c11 -11 52 -22 52 -14 0 2 -15 9 -32 15 -26 9 -30 9 -20
-1z"/>
<path d="M2160 2820 c0 -11 69 -34 77 -26 4 3 0 6 -8 6 -8 0 -26 7 -41 14 -16
8 -28 11 -28 6z"/>
<path d="M2018 2803 c7 -3 16 -2 19 1 4 3 -2 6 -13 5 -11 0 -14 -3 -6 -6z"/>
<path d="M2155 2760 c3 -5 8 -10 11 -10 2 0 4 5 4 10 0 6 -5 10 -11 10 -5 0
-7 -4 -4 -10z"/>
<path d="M2097 2730 c13 -13 56 -23 49 -12 -3 5 -17 12 -32 15 -14 2 -22 1
-17 -3z"/>
<path d="M2160 2710 c0 -5 5 -10 11 -10 5 0 7 5 4 10 -3 6 -8 10 -11 10 -2 0
-4 -4 -4 -10z"/>
<path d="M2300 2690 c0 -5 7 -10 16 -10 8 0 12 5 9 10 -3 6 -10 10 -16 10 -5
0 -9 -4 -9 -10z"/>
<path d="M2673 2690 c12 -33 25 -60 29 -60 4 0 -3 27 -14 60 -12 33 -25 60
-29 60 -4 0 2 -27 14 -60z"/>
<path d="M2665 2610 c8 -29 18 -57 24 -63 5 -5 2 16 -8 46 -22 73 -34 85 -16
17z"/>
<path d="M2625 2603 c8 -26 15 -52 15 -57 0 -5 2 -7 5 -4 8 7 -15 97 -26 104
-4 2 -2 -17 6 -43z"/>
<path d="M2701 2605 c-1 -23 21 -91 33 -102 9 -9 -2 37 -20 87 -8 23 -13 28
-13 15z"/>
<path d="M2651 2529 c-1 -6 121 -377 138 -423 6 -16 14 -27 16 -24 5 5 -39
147 -60 194 -8 18 -22 59 -30 93 -14 54 -63 176 -64 160z"/>
<path d="M2735 2480 c3 -5 8 -10 11 -10 2 0 4 5 4 10 0 6 -5 10 -11 10 -5 0
-7 -4 -4 -10z"/>
<path d="M2487 2405 c18 -39 29 -39 19 -2 -3 14 -12 27 -21 30 -12 5 -12 1 2
-28z"/>
<path d="M2519 2308 c7 -10 11 -18 8 -18 -3 0 -1 -13 4 -30 6 -16 16 -30 21
-30 6 0 5 6 -2 15 -7 8 -9 15 -5 15 4 0 2 6 -4 13 -6 8 -9 16 -6 19 3 3 -3 11
-12 19 -16 13 -17 12 -4 -3z"/>
<path d="M2570 2151 c0 -6 4 -13 10 -16 6 -3 7 1 4 9 -7 18 -14 21 -14 7z"/>
<path d="M3001 1534 c0 -11 3 -14 6 -6 3 7 2 16 -1 19 -3 4 -6 -2 -5 -13z"/>
<path d="M2951 1480 c0 -8 4 -22 9 -30 12 -18 12 -2 0 25 -6 13 -9 15 -9 5z"/>
<path d="M3034 1445 c5 -11 13 -32 18 -47 5 -16 14 -28 18 -28 5 0 -1 19 -12
43 -22 45 -36 65 -24 32z"/>
<path d="M2970 1417 c0 -13 42 -118 46 -115 2 3 -5 28 -16 57 -18 50 -30 73
-30 58z"/>
<path d="M2891 1384 c0 -11 3 -14 6 -6 3 7 2 16 -1 19 -3 4 -6 -2 -5 -13z"/>
<path d="M3070 1351 c0 -6 4 -13 10 -16 6 -3 7 1 4 9 -7 18 -14 21 -14 7z"/>
<path d="M2930 1337 c0 -7 7 -22 15 -33 13 -17 14 -16 4 14 -11 33 -19 41 -19
19z"/>
<path d="M2965 1240 c3 -5 8 -10 11 -10 2 0 4 5 4 10 0 6 -5 10 -11 10 -5 0
-7 -4 -4 -10z"/>
<path d="M3057 600 c3 -11 9 -22 13 -25 5 -3 6 4 3 15 -3 11 -9 22 -13 25 -5
3 -6 -4 -3 -15z"/>
<path d="M3291 594 c0 -11 3 -14 6 -6 3 7 2 16 -1 19 -3 4 -6 -2 -5 -13z"/>
<path d="M3206 575 c6 -31 11 -41 18 -34 2 2 -2 18 -10 34 l-14 30 6 -30z"/>
<path d="M3220 521 c0 -18 12 -41 22 -41 7 0 6 5 -1 13 -6 8 -8 16 -5 19 3 3
1 9 -5 13 -6 3 -11 2 -11 -4z"/>
<path d="M1336 2615 c-3 -9 0 -15 9 -15 9 0 12 6 9 15 -4 8 -7 15 -9 15 -2 0
-5 -7 -9 -15z"/>
<path d="M1256 2608 c3 -5 11 -5 17 -1 8 4 7 1 -1 -9 -9 -11 -10 -18 -2 -23 5
-3 10 -5 11 -3 9 39 7 47 -10 45 -11 -1 -17 -5 -15 -9z"/>
<path d="M2413 2255 c0 -8 4 -12 9 -9 5 3 6 10 3 15 -9 13 -12 11 -12 -6z"/>
<path d="M1206 2252 c-6 -10 21 -38 33 -35 3 0 5 -4 3 -10 -2 -6 4 -5 12 2 9
7 13 18 10 23 -3 5 -9 7 -12 4 -3 -3 -13 1 -23 10 -10 9 -20 11 -23 6z"/>
<path d="M1175 2180 c3 -5 8 -10 11 -10 2 0 4 5 4 10 0 6 -5 10 -11 10 -5 0
-7 -4 -4 -10z"/>
<path d="M2280 1644 c0 -8 5 -12 10 -9 6 4 8 11 5 16 -9 14 -15 11 -15 -7z"/>
<path d="M2385 1410 c-4 -6 -11 -8 -16 -5 -15 10 -10 -1 7 -15 12 -11 15 -11
12 1 -2 8 3 13 10 11 8 -1 11 2 7 8 -8 13 -12 13 -20 0z"/>
<path d="M1455 1609 c-11 -17 1 -21 15 -4 8 9 8 15 2 15 -6 0 -14 -5 -17 -11z"/>
<path d="M1407 1539 c7 -7 15 -10 18 -7 3 3 -2 9 -12 12 -14 6 -15 5 -6 -5z"/>
<path d="M1475 1460 c-12 -5 -14 -9 -6 -9 8 -1 22 -8 31 -16 14 -13 17 -13 17
-1 0 8 -5 14 -11 13 -6 -1 -10 4 -8 11 1 6 1 12 0 11 -2 0 -12 -4 -23 -9z"/>
<path d="M1557 1397 c12 -19 12 -37 2 -37 -6 0 -8 -4 -5 -9 6 -9 56 9 56 20 0
10 -30 33 -46 35 -8 1 -11 -2 -7 -9z"/>
<path d="M1642 1216 c7 -8 16 -12 21 -9 11 7 -2 23 -19 23 -12 0 -12 -2 -2
-14z"/>
<path d="M2515 1253 c3 -3 0 -12 -6 -20 -11 -13 -10 -14 14 -17 6 -1 11 -11
11 -24 -1 -18 1 -20 13 -11 11 10 10 16 -9 36 -13 14 -21 27 -20 30 2 2 1 7
-2 9 -3 2 -4 1 -1 -3z"/>
<path d="M1845 1210 c-3 -5 -1 -10 4 -10 6 0 11 5 11 10 0 6 -2 10 -4 10 -3 0
-8 -4 -11 -10z"/>
<path d="M1989 1093 c-13 -14 -19 -23 -12 -19 6 3 14 2 17 -3 9 -15 39 -6 42
12 5 32 -21 38 -47 10z m28 10 c-4 -3 -1 -13 6 -22 11 -14 10 -14 -5 -2 -16
12 -16 31 -1 31 4 0 3 -3 0 -7z"/>
<path d="M1915 1000 c4 -7 23 -19 43 -27 28 -12 36 -12 43 -2 9 15 -7 39 -26
39 -8 0 -15 -5 -17 -11 -3 -9 -10 -9 -27 1 -18 9 -22 9 -16 0z"/>
<path d="M2588 833 c7 -3 16 -2 19 1 4 3 -2 6 -13 5 -11 0 -14 -3 -6 -6z"/>
</g>
</svg>
